<svg aria-hidden="true" style="width:0;height:0;position:absolute;overflow:hidden" xmlns="http://www.w3.org/2000/svg"><defs><symbol id="icon-logo" viewBox="0 0 160 32"><path fill="none" stroke="#fff" stroke-width="1.684" stroke-linecap="round" stroke-linejoin="round" d="M22.254 4.772H4.694a2.448 2.448 0 0 0-2.448 2.447v17.56a2.448 2.448 0 0 0 2.448 2.448v0h17.56a2.448 2.448 0 0 0 2.448-2.447V7.219a2.448 2.448 0 0 0-2.448-2.448v0zm-14.395 0v22.456M19.088 4.772v22.456M2.246 16h22.456M2.246 10.387H7.86M2.246 21.613H7.86m11.228 0h5.614m-5.614-11.226h5.614"/><path fill="#fff" d="M39.065 6.105v19.158h-3.301V6.105h3.303zm7.817 8.382v2.619h-8.659v-2.619h8.657zm1.092-8.382v2.632h-9.751V6.105h9.75zm5.71 4.922v14.237H50.5V11.027h3.184zM50.29 7.289c0-.483.157-.882.473-1.197.325-.324.772-.487 1.342-.487.562 0 1.005.163 1.329.487.325.316.487.716.487 1.197 0 .474-.163.868-.487 1.184s-.767.474-1.329.474c-.57 0-1.017-.158-1.342-.474-.316-.315-.473-.71-.473-1.184zm10.262-2.236v20.211h-3.184V5.053h3.184zm6.645 8.868v11.342h-3.171V11.026h2.987l.184 2.894zm-.513 3.697-1.078-.013c0-.982.122-1.89.368-2.723s.605-1.558 1.079-2.171a4.778 4.778 0 0 1 1.735-1.422l.028-.012c.711-.343 1.531-.514 2.461-.514.648 0 1.241.097 1.776.29.553.188 1.026.49 1.407.881l.001.001c.403.403.711.921.921 1.553.219.632.328 1.395.328 2.289v9.487h-3.171v-9.211c0-.692-.105-1.236-.316-1.631a1.763 1.763 0 0 0-.87-.838l-.011-.004c-.377-.175-.829-.264-1.356-.264-.596 0-1.105.115-1.526.343a2.855 2.855 0 0 0-1.013.935c-.26.392-.46.849-.574 1.339l-.006.028a7 7 0 0 0-.185 1.616v.044-.002zm8.829-.842-1.487.33v-.051c0-.85.13-1.671.371-2.442l-.016.058a6.202 6.202 0 0 1 1.076-2.039l-.01.013a5.039 5.039 0 0 1 1.72-1.369l.03-.013c.693-.333 1.487-.5 2.381-.5.728 0 1.377.101 1.948.303.579.193 1.069.499 1.474.92s.71.969.92 1.645c.211.666.316 1.474.316 2.421v9.21h-3.184v-9.224c0-.719-.105-1.277-.316-1.672-.202-.394-.491-.666-.868-.815-.377-.158-.829-.237-1.356-.237-.491 0-.925.093-1.302.277-.374.18-.687.433-.93.744l-.004.006c-.249.31-.446.673-.572 1.069l-.007.024c-.118.391-.185.84-.185 1.305v.039-.002zm11.382 1.526V18c0-1.027.149-1.978.447-2.855a6.777 6.777 0 0 1 1.289-2.303 5.848 5.848 0 0 1 2.042-1.512l.037-.015c.824-.368 1.754-.552 2.789-.552 1.044 0 1.974.184 2.79.552a5.84 5.84 0 0 1 2.086 1.52l.006.007a6.653 6.653 0 0 1 1.303 2.302c.298.877.447 1.829.447 2.856v.303a8.826 8.826 0 0 1-.447 2.855 6.84 6.84 0 0 1-1.31 2.311l.007-.009a6.072 6.072 0 0 1-2.041 1.511l-.038.015c-.815.36-1.741.539-2.776.539-1.043 0-1.977-.179-2.803-.539a6.094 6.094 0 0 1-2.073-1.52l-.006-.006a6.817 6.817 0 0 1-1.289-2.254l-.014-.048a8.822 8.822 0 0 1-.447-2.855zM90.066 18v.303c0 .64.066 1.245.198 1.816s.338 1.069.618 1.499c.28.43.64.768 1.079 1.014s.961.369 1.565.369c.588 0 1.097-.123 1.527-.369.442-.25.805-.592 1.072-1.001l.007-.012c.281-.429.487-.93.619-1.5a7.412 7.412 0 0 0 .211-1.777v-.041.002-.302c0-.632-.071-1.228-.211-1.789a4.623 4.623 0 0 0-.642-1.531l.011.018a3.044 3.044 0 0 0-1.065-1.019l-.015-.008c-.429-.254-.942-.381-1.539-.381s-1.114.127-1.552.381a3.076 3.076 0 0 0-1.059 1.015l-.007.012c-.277.434-.49.94-.612 1.48l-.006.032a7.581 7.581 0 0 0-.198 1.745v.047-.002zm19.249-6.973v2.316h-8.026v-2.316h8.026zm-5.71-3.487h3.171v13.789c0 .439.061.776.184 1.013.131.228.311.381.539.461s.496.118.803.118c.22 0 .43-.013.632-.039s.365-.053.488-.079l.013 2.421a7.351 7.351 0 0 1-.873.204l-.048.007a6.587 6.587 0 0 1-1.117.093h-.07.004c-.728 0-1.373-.127-1.934-.382-.561-.263-1-.688-1.315-1.276s-.474-1.368-.474-2.343V7.54zm14.435 17.986c-1.053 0-2.004-.171-2.856-.513a6.331 6.331 0 0 1-2.156-1.458l-.002-.002a6.462 6.462 0 0 1-1.341-2.153l-.015-.045a7.688 7.688 0 0 1-.473-2.723v-.526c0-1.114.163-2.122.487-3.027s.776-1.676 1.355-2.316a5.819 5.819 0 0 1 2.053-1.486 6.278 6.278 0 0 1 2.509-.514h.06-.003c1.017 0 1.907.171 2.671.514s1.395.824 1.895 1.447c.509.615.886 1.347 1.131 2.198.254.851.382 1.789.382 2.815v1.356h-11v-2.276h7.869v-.25a4.441 4.441 0 0 0-.354-1.634l.011.029a2.747 2.747 0 0 0-.926-1.206l-.008-.005c-.421-.307-.983-.461-1.684-.461-.526 0-.995.115-1.408.342-.403.219-.741.54-1.013.961s-.483.93-.632 1.527a8.542 8.542 0 0 0-.211 1.987V18.683c0 .602.091 1.182.261 1.728l-.011-.041c.175.532.435.991.768 1.387l-.005-.006c.333.395.737.707 1.211.935.473.219 1.013.328 1.619.328.763 0 1.443-.153 2.039-.461a4.711 4.711 0 0 0 1.545-1.292l.008-.011 1.672 1.619c-.348.49-.742.915-1.186 1.281l-.011.009c-.492.403-1.092.733-1.803.986-.701.254-1.517.381-2.447.381zm11.368-20.473v20.211h-3.184V5.053h3.184zm8.842 5.974-6.198 6.868-3.395 3.474-.829-2.685 2.566-3.171 4.026-4.487h3.829zm-3.144 14.236-4.619-6.685 2-2.223 6.29 8.908h-3.671zm13.184-2.855v-6.79c0-.509-.093-.947-.276-1.316a1.953 1.953 0 0 0-.832-.85l-.011-.005c-.369-.202-.834-.303-1.395-.303-.517 0-.964.088-1.341.264s-.671.413-.882.711-.316.636-.316 1.013h-3.158c0-.562.136-1.106.408-1.632s.667-.995 1.184-1.408c.518-.413 1.136-.737 1.856-.973s1.526-.355 2.42-.355c1.07 0 2.018.18 2.843.539.833.36 1.486.904 1.96 1.632.483.719.723 1.624.723 2.712v6.328c0 .648.044 1.232.131 1.75.097.509.232.952.408 1.329v.211h-3.251c-.149-.342-.267-.776-.355-1.303a10.773 10.773 0 0 1-.118-1.553zm.46-5.803.026 1.96H146.5a6.32 6.32 0 0 0-1.553.171c-.447.105-.82.264-1.118.474s-.522.465-.671.763a2.197 2.197 0 0 0-.224.976v.039-.002c0 .377.088.724.264 1.039.175.307.429.548.763.724.342.175.755.263 1.237.263.649 0 1.215-.131 1.698-.395.491-.272.877-.6 1.157-.987.281-.394.43-.767.448-1.118l1.026 1.408c-.104.36-.285.746-.539 1.158s-.588.808-1 1.185a4.951 4.951 0 0 1-1.427.895l-.033.012c-.562.236-1.211.355-1.947.355-.931 0-1.759-.185-2.488-.553-.728-.377-1.298-.882-1.71-1.513-.412-.64-.618-1.364-.618-2.171 0-.755.14-1.421.421-2 .3-.6.728-1.095 1.251-1.465l.012-.008c.561-.394 1.245-.693 2.052-.894.808-.211 1.728-.316 2.764-.316h2.487z"/></symbol><symbol id="icon-search" viewBox="0 0 32 32"><path stroke-width="2.286" stroke-linecap="round" stroke-linejoin="round" d="m14.667 25.333.156.001c5.891 0 10.667-4.776 10.667-10.667S20.714 4 14.823 4l-.164.001h.008c-5.824.088-10.511 4.83-10.511 10.666s4.687 10.578 10.503 10.666h.008zM28 28l-5.803-5.801"/></symbol><symbol id="icon-heart" viewBox="0 0 34 32"><path d="m17.231 31.705-2.412-2.412C5.859 21.367.001 16.025.001 9.478.001 4.136 4.136.001 9.478.001c2.929 0 5.858 1.378 7.754 3.618 1.895-2.24 4.825-3.618 7.754-3.618 5.342 0 9.477 4.135 9.477 9.477 0 6.548-5.858 11.889-14.818 19.815l-2.412 2.412z"/></symbol><symbol id="icon-arrow" viewBox="0 0 16 16"><path d="M12.666 8H3.333" stroke-width="1.333" stroke-linecap="round" stroke-linejoin="round"/><path fill="none" d="M8 12.667 3.333 8 8 3.333" stroke-width="1.333" stroke-linecap="round" stroke-linejoin="round"/></symbol><symbol id="icon-close" viewBox="0 0 30 30"><path stroke-width="2.133" d="m8.533 8.533 14.933 14.933m-14.933.001L23.466 8.534"/></symbol><symbol id="icon-arrow-up2" viewBox="0 0 32 32"><path d="m27.414 12.586-10-10a2 2 0 0 0-2.828 0l-10 10a2 2 0 1 0 2.828 2.828L14 8.828V28a2 2 0 1 0 4 0V8.828l6.586 6.586c.39.39.902.586 1.414.586s1.024-.195 1.414-.586a2 2 0 0 0 0-2.828z"/></symbol><symbol id="icon-linkedin" viewBox="0 0 32 32"><path d="M16 0C7.164 0 0 7.164 0 16s7.164 16 16 16 16-7.164 16-16S24.836 0 16 0zm-2.667 21.333h-2.667v-8h2.667v8zM12 12.145a1.473 1.473 0 0 1-1.467-1.479c0-.816.656-1.479 1.467-1.479s1.467.663 1.467 1.479c0 .817-.657 1.479-1.467 1.479zm10.667 9.188h-2.664v-3.815c0-2.508-2.669-2.296-2.669 0v3.815h-2.667v-8h2.667v1.457c1.163-2.155 5.333-2.315 5.333 2.064v4.479z"/></symbol><symbol id="icon-github" viewBox="0 0 32 32"><path d="M16 0C7.164 0 0 7.164 0 16s7.164 16 16 16 16-7.164 16-16S24.836 0 16 0zm2.957 24.821c-.472.092-.624-.199-.624-.448v-2.561c0-.871-.305-1.439-.641-1.728 2.08-.231 4.264-1.02 4.264-4.605 0-1.02-.364-1.852-.961-2.505.096-.236.416-1.185-.092-2.471 0 0-.783-.251-2.564.956A9.078 9.078 0 0 0 16 11.147a9.015 9.015 0 0 0-2.337.313c-1.783-1.207-2.567-.956-2.567-.956-.505 1.285-.187 2.235-.089 2.469a3.61 3.61 0 0 0-.963 2.505c0 3.576 2.179 4.376 4.252 4.612-.267.233-.508.644-.592 1.248-.533.239-1.884.651-2.716-.776 0 0-.493-.896-1.431-.963 0 0-.911-.012-.064.568 0 0 .613.287 1.036 1.365 0 0 .54 1.667 3.137 1.101v1.737c0 .247-.151.536-.616.449a9.334 9.334 0 1 1 5.906 0z"/></symbol><symbol id="icon-facebook" viewBox="0 0 32 32"><path d="M16 0C7.164 0 0 7.164 0 16s7.164 16 16 16 16-7.164 16-16S24.836 0 16 0zm4 10.667h-1.8c-.717 0-.867.295-.867 1.037v1.629H20L19.721 16h-2.388v9.333h-4V16h-2.667v-2.667h2.667v-3.077c0-2.359 1.241-3.589 4.039-3.589H20v4z"/></symbol><symbol id="icon-sun" viewBox="0 0 32 32"><path fill="currentColor" d="M16 26a2 2 0 0 1 2 2v2a2 2 0 1 1-4 0v-2a2 2 0 0 1 2-2zm0-20a2 2 0 0 1-2-2V2a2 2 0 1 1 4 0v2a2 2 0 0 1-2 2zm14 8a2 2 0 1 1 0 4h-2a2 2 0 1 1 0-4h2zM6 16a2 2 0 0 1-2 2H2a2 2 0 1 1 0-4h2a2 2 0 0 1 2 2zm19.899 7.071 1.414 1.414a2 2 0 1 1-2.828 2.828l-1.414-1.414a2 2 0 1 1 2.828-2.828zM6.101 8.929 4.687 7.515a2 2 0 1 1 2.828-2.828l1.414 1.414a2 2 0 1 1-2.828 2.828zm19.798 0a2 2 0 1 1-2.828-2.828l1.414-1.414a2 2 0 1 1 2.828 2.828l-1.414 1.414zM6.101 23.071a2 2 0 1 1 2.828 2.828l-1.414 1.414a2 2 0 1 1-2.828-2.828l1.414-1.414zM16 8a8 8 0 1 0 0 16 8 8 0 0 0 0-16zm0 13a5 5 0 1 1 .001-10.001A5 5 0 0 1 16 21z"/></symbol><symbol id="icon-moon" viewBox="0 0 32 32"><path fill="currentColor" stroke-linecap="round" stroke-linejoin="round" stroke-width="2" d="M10 8.5c0-1.914.282-3.851 1-5.5-4.777 2.079-8 6.957-8 12.5C3 22.956 9.044 29 16.5 29c5.543 0 10.421-3.223 12.5-8-1.649.718-3.586 1-5.5 1C16.044 22 10 15.956 10 8.5z"/></symbol></defs></svg>