<svg aria-hidden="true" style="position: absolute; width: 0; height: 0; overflow: hidden;" version="1.1" xmlns="http://www.w3.org/2000/svg" xmlns:xlink="http://www.w3.org/1999/xlink">
<defs>
<symbol id="icon-logo" viewBox="0 0 160 32">
<path fill="none" stroke="#fff" stroke-width="1.6842" stroke-miterlimit="4" stroke-linecap="round" stroke-linejoin="round" style="stroke: var(--color1, #fff)" d="M22.254 4.772h-17.56c-1.352 0-2.448 1.096-2.448 2.447v17.56c0 1.352 1.096 2.448 2.448 2.448v0h17.56c1.352 0 2.448-1.096 2.448-2.447v-17.561c0-1.352-1.096-2.448-2.448-2.448v0zM7.859 4.772v22.456M19.088 4.772v22.456M2.246 16h22.456M2.246 10.387h5.614M2.246 21.613h5.614M19.088 21.613h5.614M19.088 10.387h5.614"></path>
<path fill="#fff" style="fill: var(--color1, #fff)" d="M39.065 6.105v19.158h-3.301v-19.158h3.303zM46.882 14.487v2.619h-8.659v-2.619h8.657zM47.974 6.105v2.632h-9.751v-2.632h9.75zM53.684 11.027v14.237h-3.184v-14.237h3.184zM50.29 7.289c0-0.483 0.157-0.882 0.473-1.197 0.325-0.324 0.772-0.487 1.342-0.487 0.562 0 1.005 0.163 1.329 0.487 0.325 0.316 0.487 0.716 0.487 1.197 0 0.474-0.163 0.868-0.487 1.184s-0.767 0.474-1.329 0.474c-0.57 0-1.017-0.158-1.342-0.474-0.316-0.315-0.473-0.71-0.473-1.184zM60.552 5.053v20.211h-3.184v-20.211h3.184zM67.197 13.921v11.342h-3.171v-14.237h2.987l0.184 2.894zM66.684 17.618l-1.078-0.013c0-0.982 0.122-1.89 0.368-2.723s0.605-1.558 1.079-2.171c0.462-0.608 1.053-1.094 1.735-1.422l0.028-0.012c0.711-0.343 1.531-0.514 2.461-0.514 0.648 0 1.241 0.097 1.776 0.29 0.553 0.188 1.026 0.49 1.407 0.881l0.001 0.001c0.403 0.403 0.711 0.921 0.921 1.553 0.219 0.632 0.328 1.395 0.328 2.289v9.487h-3.171v-9.211c0-0.692-0.105-1.236-0.316-1.631-0.186-0.378-0.494-0.672-0.87-0.838l-0.011-0.004c-0.377-0.175-0.829-0.264-1.356-0.264-0.596 0-1.105 0.115-1.526 0.343-0.413 0.227-0.749 0.539-1.013 0.935-0.26 0.392-0.46 0.849-0.574 1.339l-0.006 0.028c-0.117 0.485-0.185 1.043-0.185 1.616 0 0.015 0 0.030 0 0.044v-0.002zM75.513 16.776l-1.487 0.33c-0-0.015-0-0.033-0-0.051 0-0.85 0.13-1.671 0.371-2.442l-0.016 0.058c0.243-0.777 0.607-1.451 1.076-2.039l-0.010 0.013c0.469-0.579 1.053-1.046 1.72-1.369l0.030-0.013c0.693-0.333 1.487-0.5 2.381-0.5 0.728 0 1.377 0.101 1.948 0.303 0.579 0.193 1.069 0.499 1.474 0.92s0.71 0.969 0.92 1.645c0.211 0.666 0.316 1.474 0.316 2.421v9.21h-3.184v-9.224c0-0.719-0.105-1.277-0.316-1.672-0.202-0.394-0.491-0.666-0.868-0.815-0.377-0.158-0.829-0.237-1.356-0.237-0.491 0-0.925 0.093-1.302 0.277-0.374 0.18-0.687 0.433-0.93 0.744l-0.004 0.006c-0.249 0.31-0.446 0.673-0.572 1.069l-0.007 0.024c-0.118 0.391-0.185 0.84-0.185 1.305 0 0.013 0 0.026 0 0.039v-0.002zM86.895 18.302v-0.302c0-1.027 0.149-1.978 0.447-2.855 0.298-0.887 0.728-1.654 1.289-2.303 0.563-0.647 1.257-1.164 2.042-1.512l0.037-0.015c0.824-0.368 1.754-0.552 2.789-0.552 1.044 0 1.974 0.184 2.79 0.552 0.828 0.361 1.526 0.878 2.086 1.52l0.006 0.007c0.57 0.648 1.005 1.416 1.303 2.302 0.298 0.877 0.447 1.829 0.447 2.856v0.303c0 1.026-0.149 1.977-0.447 2.855-0.299 0.888-0.743 1.654-1.31 2.311l0.007-0.009c-0.567 0.641-1.26 1.157-2.041 1.511l-0.038 0.015c-0.815 0.36-1.741 0.539-2.776 0.539-1.043 0-1.977-0.179-2.803-0.539-0.819-0.37-1.512-0.886-2.073-1.52l-0.006-0.006c-0.56-0.648-1.003-1.415-1.289-2.254l-0.014-0.048c-0.298-0.877-0.447-1.829-0.447-2.855zM90.066 18v0.303c0 0.64 0.066 1.245 0.198 1.816s0.338 1.069 0.618 1.499c0.28 0.43 0.64 0.768 1.079 1.014s0.961 0.369 1.565 0.369c0.588 0 1.097-0.123 1.527-0.369 0.442-0.25 0.805-0.592 1.072-1.001l0.007-0.012c0.281-0.429 0.487-0.93 0.619-1.5 0.134-0.534 0.211-1.147 0.211-1.777 0-0.014-0-0.027-0-0.041v0.002-0.302c0-0.632-0.071-1.228-0.211-1.789-0.129-0.573-0.347-1.080-0.642-1.531l0.011 0.018c-0.272-0.428-0.635-0.774-1.065-1.019l-0.015-0.008c-0.429-0.254-0.942-0.381-1.539-0.381s-1.114 0.127-1.552 0.381c-0.438 0.255-0.797 0.601-1.059 1.015l-0.007 0.012c-0.277 0.434-0.49 0.94-0.612 1.48l-0.006 0.032c-0.126 0.524-0.198 1.126-0.198 1.745 0 0.016 0 0.031 0 0.047v-0.002zM109.315 11.027v2.316h-8.026v-2.316h8.026zM103.605 7.54h3.171v13.789c0 0.439 0.061 0.776 0.184 1.013 0.131 0.228 0.311 0.381 0.539 0.461s0.496 0.118 0.803 0.118c0.22 0 0.43-0.013 0.632-0.039s0.365-0.053 0.488-0.079l0.013 2.421c-0.246 0.076-0.557 0.149-0.873 0.204l-0.048 0.007c-0.336 0.059-0.723 0.093-1.117 0.093-0.023 0-0.047-0-0.070-0l0.004 0c-0.728 0-1.373-0.127-1.934-0.382-0.561-0.263-1-0.688-1.315-1.276s-0.474-1.368-0.474-2.343v-13.987zM118.040 25.526c-1.053 0-2.004-0.171-2.856-0.513-0.844-0.349-1.562-0.843-2.156-1.458l-0.002-0.002c-0.577-0.614-1.038-1.345-1.341-2.153l-0.015-0.045c-0.316-0.842-0.473-1.75-0.473-2.723v-0.526c0-1.114 0.163-2.122 0.487-3.027s0.776-1.676 1.355-2.316c0.579-0.648 1.263-1.145 2.053-1.486 0.74-0.325 1.603-0.514 2.509-0.514 0.020 0 0.040 0 0.060 0l-0.003-0c1.017 0 1.907 0.171 2.671 0.514s1.395 0.824 1.895 1.447c0.509 0.615 0.886 1.347 1.131 2.198 0.254 0.851 0.382 1.789 0.382 2.815v1.356h-11v-2.276h7.869v-0.25c-0.015-0.583-0.14-1.132-0.354-1.634l0.011 0.029c-0.197-0.495-0.518-0.906-0.926-1.206l-0.008-0.005c-0.421-0.307-0.983-0.461-1.684-0.461-0.526 0-0.995 0.115-1.408 0.342-0.403 0.219-0.741 0.54-1.013 0.961s-0.483 0.93-0.632 1.527c-0.141 0.588-0.211 1.25-0.211 1.987v0.526c-0 0.015-0 0.033-0 0.050 0 0.602 0.091 1.182 0.261 1.728l-0.011-0.041c0.175 0.532 0.435 0.991 0.768 1.387l-0.005-0.006c0.333 0.395 0.737 0.707 1.211 0.935 0.473 0.219 1.013 0.328 1.619 0.328 0.763 0 1.443-0.153 2.039-0.461 0.619-0.326 1.137-0.764 1.545-1.292l0.008-0.011 1.672 1.619c-0.348 0.49-0.742 0.915-1.186 1.281l-0.011 0.009c-0.492 0.403-1.092 0.733-1.803 0.986-0.701 0.254-1.517 0.381-2.447 0.381zM129.408 5.053v20.211h-3.184v-20.211h3.184zM138.25 11.027l-6.198 6.868-3.395 3.474-0.829-2.685 2.566-3.171 4.026-4.487h3.829zM135.106 25.263l-4.619-6.685 2-2.223 6.29 8.908h-3.671zM148.29 22.408v-6.79c0-0.509-0.093-0.947-0.276-1.316-0.187-0.369-0.477-0.663-0.832-0.85l-0.011-0.005c-0.369-0.202-0.834-0.303-1.395-0.303-0.517 0-0.964 0.088-1.341 0.264s-0.671 0.413-0.882 0.711-0.316 0.636-0.316 1.013h-3.158c0-0.562 0.136-1.106 0.408-1.632s0.667-0.995 1.184-1.408c0.518-0.413 1.136-0.737 1.856-0.973s1.526-0.355 2.42-0.355c1.070 0 2.018 0.18 2.843 0.539 0.833 0.36 1.486 0.904 1.96 1.632 0.483 0.719 0.723 1.624 0.723 2.712v6.328c0 0.648 0.044 1.232 0.131 1.75 0.097 0.509 0.232 0.952 0.408 1.329v0.211h-3.251c-0.149-0.342-0.267-0.776-0.355-1.303-0.078-0.535-0.118-1.053-0.118-1.553zM148.75 16.605l0.026 1.96h-2.276c-0.588 0-1.106 0.057-1.553 0.171-0.447 0.105-0.82 0.264-1.118 0.474s-0.522 0.465-0.671 0.763c-0.142 0.285-0.224 0.621-0.224 0.976 0 0.013 0 0.026 0 0.039l-0-0.002c0 0.377 0.088 0.724 0.264 1.039 0.175 0.307 0.429 0.548 0.763 0.724 0.342 0.175 0.755 0.263 1.237 0.263 0.649 0 1.215-0.131 1.698-0.395 0.491-0.272 0.877-0.6 1.157-0.987 0.281-0.394 0.43-0.767 0.448-1.118l1.026 1.408c-0.104 0.36-0.285 0.746-0.539 1.158s-0.588 0.808-1 1.185c-0.414 0.372-0.898 0.678-1.427 0.895l-0.033 0.012c-0.562 0.236-1.211 0.355-1.947 0.355-0.931 0-1.759-0.185-2.488-0.553-0.728-0.377-1.298-0.882-1.71-1.513-0.412-0.64-0.618-1.364-0.618-2.171 0-0.755 0.14-1.421 0.421-2 0.3-0.6 0.728-1.095 1.251-1.465l0.012-0.008c0.561-0.394 1.245-0.693 2.052-0.894 0.808-0.211 1.728-0.316 2.764-0.316h2.487z"></path>
</symbol>
<symbol id="icon-search" viewBox="0 0 32 32">
<path stroke-width="2.2857" stroke-miterlimit="4" stroke-linecap="round" stroke-linejoin="round" d="M14.667 25.333c0.046 0.001 0.101 0.001 0.156 0.001 5.891 0 10.667-4.776 10.667-10.667s-4.776-10.667-10.667-10.667c-0.055 0-0.11 0-0.164 0.001l0.008-0c-5.824 0.088-10.511 4.83-10.511 10.666s4.687 10.578 10.503 10.666l0.008 0zM28 28l-5.803-5.801"></path>
</symbol>
<symbol id="icon-heart" viewBox="0 0 34 32">
<path fill="#b92f2c" style="fill: var(--color2, #b92f2c)" d="M17.231 31.705l-2.412-2.412c-8.96-7.926-14.818-13.268-14.818-19.815 0-5.342 4.135-9.477 9.477-9.477 2.929 0 5.858 1.378 7.754 3.618 1.895-2.24 4.825-3.618 7.754-3.618 5.342 0 9.477 4.135 9.477 9.477 0 6.548-5.858 11.889-14.818 19.815l-2.412 2.412z"></path>
</symbol>
<symbol id="icon-arrow" viewBox="0 0 16 16">
<path d="M12.6663 8H3.33301" stroke-width="1.33333" stroke-linecap="round" stroke-linejoin="round"/>
<path fill="none"  d="M7.99967 12.6666L3.33301 7.99992L7.99967 3.33325" stroke-width="1.33333" stroke-linecap="round" stroke-linejoin="round"/>
</symbol>
</defs>
</svg>
